<?xml version="1.0" encoding="utf-8"?>
<!-- Generator: Adobe Illustrator 21.0.0, SVG Export Plug-In . SVG Version: 6.00 Build 0)  -->
<svg version="1.1" id="图层_1" xmlns="http://www.w3.org/2000/svg" xmlns:xlink="http://www.w3.org/1999/xlink" x="0px" y="0px"
	 viewBox="0 0 761 218" style="enable-background:new 0 0 761 218;" xml:space="preserve">
<style type="text/css">
	.st0{fill:#FBBC04;}
	.st1{fill:#0F9D58;}
	.st2{fill:#EA4335;}
	.st3{fill:#4285F4;}
	.st4{opacity:0.54;}
</style>
<g>
	<path class="st0" d="M240.9,178.4c25.2-14.2,50.4-28.4,75.7-42.6c3.6-2,7.2-4.1,10.8-6.1c10.9-6.2,15.6-22.1,8.6-32.8
		c-7.1-11.1-21.1-15.2-32.8-8.6c-25.2,14.2-50.4,28.4-75.7,42.6c-3.6,2-7.2,4.1-10.8,6.1c-10.9,6.2-15.6,22.1-8.6,32.8
		C215.2,180.9,229.2,185,240.9,178.4L240.9,178.4z"/>
</g>
<g>
	<path class="st1" d="M217.1,81.5c25.2,14.2,50.4,28.4,75.7,42.6c3.6,2,7.2,4.1,10.8,6.1c10.9,6.2,26.7,3,32.8-8.6
		c6-11.3,3.1-26.3-8.6-32.8c-25.2-14.2-50.4-28.4-75.7-42.6c-3.6-2-7.2-4.1-10.8-6.1c-10.9-6.2-26.7-3-32.8,8.6
		C202.5,60,205.5,74.9,217.1,81.5L217.1,81.5z"/>
</g>
<g>
	<path class="st2" d="M132.9,39.8C107.7,54,82.5,68.2,57.3,82.4c-3.6,2-7.2,4.1-10.8,6.1c-10.9,6.2-15.6,22.1-8.6,32.8
		c7.1,11.1,21.1,15.2,32.8,8.6c25.2-14.2,50.4-28.4,75.7-42.6c3.6-2,7.2-4.1,10.8-6.1c10.9-6.2,15.6-22.1,8.6-32.8
		C158.6,37.3,144.7,33.2,132.9,39.8L132.9,39.8z"/>
</g>
<g>
	<path class="st3" d="M156.2,137.2c-25.2-14.2-50.4-28.4-75.7-42.6c-3.6-2-7.2-4.1-10.8-6.1c-10.9-6.2-26.7-3-32.8,8.6
		c-6,11.3-3.1,26.3,8.6,32.8c25.2,14.2,50.4,28.4,75.7,42.6c3.6,2,7.2,4.1,10.8,6.1c10.9,6.2,26.7,3,32.8-8.6
		C170.8,158.7,167.8,143.8,156.2,137.2L156.2,137.2z"/>
</g>
</svg>
